<?xml version="1.0" encoding="UTF-8"?>
<svg width="800" height="600" xmlns="http://www.w3.org/2000/svg">
<title>DCEL Structure</title>
<line x1="300" y1="50" x2="50" y2="216" stroke="blue" stroke-width="1.5"/>
<polygon points="118.335,170.625 133.877,165.107 129.452,158.442" fill="blue"/>
<text x="175" y="133" font-family="Arial" font-size="10" fill="darkblue" text-anchor="middle">1</text>
<line x1="50" y1="216" x2="133" y2="300" stroke="blue" stroke-width="1.5"/>
<polygon points="113.723,280.491 105.322,266.298 99.6318,271.921" fill="blue"/>
<text x="91" y="258" font-family="Arial" font-size="10" fill="darkblue" text-anchor="middle">2</text>
<line x1="133" y1="300" x2="300" y2="133" stroke="blue" stroke-width="1.5"/>
<polygon points="255.557,177.443 241.415,185.928 247.072,191.585" fill="blue"/>
<text x="216" y="216" font-family="Arial" font-size="10" fill="darkblue" text-anchor="middle">3</text>
<line x1="300" y1="133" x2="300" y2="50" stroke="blue" stroke-width="1.5"/>
<polygon points="300,66.9 296,82.9 304,82.9" fill="blue"/>
<text x="300" y="91" font-family="Arial" font-size="10" fill="darkblue" text-anchor="middle">4</text>
<line x1="300" y1="50" x2="300" y2="133" stroke="blue" stroke-width="1.5"/>
<polygon points="300,116.1 304,100.1 296,100.1" fill="blue"/>
<text x="300" y="91" font-family="Arial" font-size="10" fill="darkblue" text-anchor="middle">5</text>
<line x1="300" y1="133" x2="466" y2="300" stroke="blue" stroke-width="1.5"/>
<polygon points="421.84,255.574 413.397,241.406 407.723,247.046" fill="blue"/>
<text x="383" y="216" font-family="Arial" font-size="10" fill="darkblue" text-anchor="middle">6</text>
<line x1="466" y1="300" x2="550" y2="216" stroke="blue" stroke-width="1.5"/>
<polygon points="530.457,235.543 516.315,244.028 521.972,249.685" fill="blue"/>
<text x="508" y="258" font-family="Arial" font-size="10" fill="darkblue" text-anchor="middle">7</text>
<line x1="550" y1="216" x2="300" y2="50" stroke="blue" stroke-width="1.5"/>
<polygon points="368.335,95.3747 379.452,107.558 383.877,100.893" fill="blue"/>
<text x="425" y="133" font-family="Arial" font-size="10" fill="darkblue" text-anchor="middle">8</text>
<line x1="550" y1="216" x2="466" y2="300" stroke="blue" stroke-width="1.5"/>
<polygon points="485.543,280.457 499.685,271.972 494.028,266.315" fill="blue"/>
<text x="508" y="258" font-family="Arial" font-size="10" fill="darkblue" text-anchor="middle">9</text>
<line x1="466" y1="300" x2="383" y2="466" stroke="blue" stroke-width="1.5"/>
<polygon points="404.322,423.355 415.055,410.833 407.9,407.256" fill="blue"/>
<text x="424" y="383" font-family="Arial" font-size="10" fill="darkblue" text-anchor="middle">10</text>
<line x1="383" y1="466" x2="466" y2="550" stroke="blue" stroke-width="1.5"/>
<polygon points="446.723,530.491 438.322,516.298 432.632,521.921" fill="blue"/>
<text x="424" y="508" font-family="Arial" font-size="10" fill="darkblue" text-anchor="middle">11</text>
<line x1="466" y1="550" x2="550" y2="216" stroke="blue" stroke-width="1.5"/>
<polygon points="526.751,308.442 518.97,322.983 526.728,324.934" fill="blue"/>
<text x="508" y="383" font-family="Arial" font-size="10" fill="darkblue" text-anchor="middle">12</text>
<line x1="466" y1="550" x2="383" y2="466" stroke="blue" stroke-width="1.5"/>
<polygon points="402.277,485.509 410.678,499.702 416.368,494.079" fill="blue"/>
<text x="424" y="508" font-family="Arial" font-size="10" fill="darkblue" text-anchor="middle">13</text>
<line x1="383" y1="466" x2="216" y2="466" stroke="blue" stroke-width="1.5"/>
<polygon points="258.1,466 274.1,470 274.1,462" fill="blue"/>
<text x="299" y="466" font-family="Arial" font-size="10" fill="darkblue" text-anchor="middle">14</text>
<line x1="216" y1="466" x2="133" y2="550" stroke="blue" stroke-width="1.5"/>
<polygon points="152.277,530.491 166.368,521.921 160.678,516.298" fill="blue"/>
<text x="174" y="508" font-family="Arial" font-size="10" fill="darkblue" text-anchor="middle">15</text>
<line x1="133" y1="550" x2="466" y2="550" stroke="blue" stroke-width="1.5"/>
<polygon points="374.1,550 358.1,546 358.1,554" fill="blue"/>
<text x="299" y="550" font-family="Arial" font-size="10" fill="darkblue" text-anchor="middle">16</text>
<line x1="133" y1="550" x2="216" y2="466" stroke="blue" stroke-width="1.5"/>
<polygon points="196.723,485.509 182.632,494.079 188.322,499.702" fill="blue"/>
<text x="174" y="508" font-family="Arial" font-size="10" fill="darkblue" text-anchor="middle">17</text>
<line x1="216" y1="466" x2="133" y2="300" stroke="blue" stroke-width="1.5"/>
<polygon points="154.322,342.645 157.9,358.744 165.055,355.167" fill="blue"/>
<text x="174" y="383" font-family="Arial" font-size="10" fill="darkblue" text-anchor="middle">18</text>
<line x1="133" y1="300" x2="50" y2="216" stroke="blue" stroke-width="1.5"/>
<polygon points="69.2771,235.509 77.6776,249.702 83.3682,244.079" fill="blue"/>
<text x="91" y="258" font-family="Arial" font-size="10" fill="darkblue" text-anchor="middle">19</text>
<line x1="50" y1="216" x2="133" y2="550" stroke="blue" stroke-width="1.5"/>
<polygon points="110.029,457.564 110.053,441.071 102.289,443.001" fill="blue"/>
<text x="91" y="383" font-family="Arial" font-size="10" fill="darkblue" text-anchor="middle">20</text>
<line x1="300" y1="133" x2="133" y2="300" stroke="blue" stroke-width="1.5"/>
<polygon points="177.443,255.557 191.585,247.072 185.928,241.415" fill="blue"/>
<text x="216" y="216" font-family="Arial" font-size="10" fill="darkblue" text-anchor="middle">21</text>
<line x1="133" y1="300" x2="216" y2="466" stroke="blue" stroke-width="1.5"/>
<polygon points="194.678,423.355 191.1,407.256 183.945,410.833" fill="blue"/>
<text x="174" y="383" font-family="Arial" font-size="10" fill="darkblue" text-anchor="middle">22</text>
<line x1="216" y1="466" x2="383" y2="466" stroke="blue" stroke-width="1.5"/>
<polygon points="340.9,466 324.9,462 324.9,470" fill="blue"/>
<text x="299" y="466" font-family="Arial" font-size="10" fill="darkblue" text-anchor="middle">23</text>
<line x1="383" y1="466" x2="466" y2="300" stroke="blue" stroke-width="1.5"/>
<polygon points="444.678,342.645 433.945,355.167 441.1,358.744" fill="blue"/>
<text x="424" y="383" font-family="Arial" font-size="10" fill="darkblue" text-anchor="middle">24</text>
<line x1="466" y1="300" x2="300" y2="133" stroke="blue" stroke-width="1.5"/>
<polygon points="344.16,177.426 352.603,191.594 358.277,185.954" fill="blue"/>
<text x="383" y="216" font-family="Arial" font-size="10" fill="darkblue" text-anchor="middle">25</text>
<line x1="300" y1="50" x2="550" y2="216" stroke="blue" stroke-width="1.5"/>
<polygon points="481.665,170.625 470.548,158.442 466.123,165.107" fill="blue"/>
<text x="425" y="133" font-family="Arial" font-size="10" fill="darkblue" text-anchor="middle">26</text>
<line x1="550" y1="216" x2="466" y2="550" stroke="blue" stroke-width="1.5"/>
<polygon points="489.249,457.558 497.03,443.017 489.272,441.066" fill="blue"/>
<text x="508" y="383" font-family="Arial" font-size="10" fill="darkblue" text-anchor="middle">27</text>
<line x1="466" y1="550" x2="133" y2="550" stroke="blue" stroke-width="1.5"/>
<polygon points="224.9,550 240.9,554 240.9,546" fill="blue"/>
<text x="299" y="550" font-family="Arial" font-size="10" fill="darkblue" text-anchor="middle">28</text>
<line x1="133" y1="550" x2="50" y2="216" stroke="blue" stroke-width="1.5"/>
<polygon points="72.9707,308.436 72.9474,324.929 80.7113,322.999" fill="blue"/>
<text x="91" y="383" font-family="Arial" font-size="10" fill="darkblue" text-anchor="middle">29</text>
<line x1="50" y1="216" x2="300" y2="50" stroke="blue" stroke-width="1.5"/>
<polygon points="231.665,95.3747 216.123,100.893 220.548,107.558" fill="blue"/>
<text x="175" y="133" font-family="Arial" font-size="10" fill="darkblue" text-anchor="middle">30</text>
<circle cx="300" cy="50" r="6" fill="red" stroke="darkred" stroke-width="2"/>
<text x="310" y="40" font-family="Arial" font-size="12" fill="black" font-weight="bold">1</text>
<circle cx="50" cy="216" r="6" fill="red" stroke="darkred" stroke-width="2"/>
<text x="60" y="206" font-family="Arial" font-size="12" fill="black" font-weight="bold">2</text>
<circle cx="300" cy="133" r="6" fill="red" stroke="darkred" stroke-width="2"/>
<text x="310" y="123" font-family="Arial" font-size="12" fill="black" font-weight="bold">3</text>
<circle cx="550" cy="216" r="6" fill="red" stroke="darkred" stroke-width="2"/>
<text x="560" y="206" font-family="Arial" font-size="12" fill="black" font-weight="bold">4</text>
<circle cx="133" cy="300" r="6" fill="red" stroke="darkred" stroke-width="2"/>
<text x="143" y="290" font-family="Arial" font-size="12" fill="black" font-weight="bold">5</text>
<circle cx="466" cy="300" r="6" fill="red" stroke="darkred" stroke-width="2"/>
<text x="476" y="290" font-family="Arial" font-size="12" fill="black" font-weight="bold">6</text>
<circle cx="216" cy="466" r="6" fill="red" stroke="darkred" stroke-width="2"/>
<text x="226" y="456" font-family="Arial" font-size="12" fill="black" font-weight="bold">7</text>
<circle cx="383" cy="466" r="6" fill="red" stroke="darkred" stroke-width="2"/>
<text x="393" y="456" font-family="Arial" font-size="12" fill="black" font-weight="bold">8</text>
<circle cx="133" cy="550" r="6" fill="red" stroke="darkred" stroke-width="2"/>
<text x="143" y="540" font-family="Arial" font-size="12" fill="black" font-weight="bold">9</text>
<circle cx="466" cy="550" r="6" fill="red" stroke="darkred" stroke-width="2"/>
<text x="476" y="540" font-family="Arial" font-size="12" fill="black" font-weight="bold">10</text>
<text x="133" y="216" font-family="Arial" font-size="14" fill="green" font-weight="bold" text-anchor="middle">F1</text>
<text x="383" y="216" font-family="Arial" font-size="14" fill="green" font-weight="bold" text-anchor="middle">F2</text>
<text x="466" y="383" font-family="Arial" font-size="14" fill="green" font-weight="bold" text-anchor="middle">F3</text>
<text x="300" y="550" font-family="Arial" font-size="14" fill="green" font-weight="bold" text-anchor="middle">F4</text>
<text x="133" y="383" font-family="Arial" font-size="14" fill="green" font-weight="bold" text-anchor="middle">F5</text>
<text x="300" y="383" font-family="Arial" font-size="14" fill="green" font-weight="bold" text-anchor="middle">F6</text>
<text x="300" y="383" font-family="Arial" font-size="14" fill="green" font-weight="bold" text-anchor="middle">F7</text>
<text x="10" y="30" font-family="Arial" font-size="16" fill="black" font-weight="bold">DCEL Structure</text>
<text x="10" y="50" font-family="Arial" font-size="12" fill="black">Vertices: 10</text>
<text x="10" y="70" font-family="Arial" font-size="12" fill="black">Edges: 15</text>
<text x="10" y="90" font-family="Arial" font-size="12" fill="black">Faces: 7</text>
<text x="10" y="110" font-family="Arial" font-size="12" fill="blue">Blue arrows: Half-edges</text>
<text x="10" y="130" font-family="Arial" font-size="12" fill="red">Red circles: Vertices</text>
<text x="10" y="150" font-family="Arial" font-size="12" fill="green">Green labels: Faces</text>
</svg>
